<svg xmlns="http://www.w3.org/2000/svg" viewBox="0 0 137.95 49.29">
  <g id="Layer_2" data-name="Layer 2">
    <g id="Layer_1-2" data-name="Layer 1">
      <g>
        <path d="M29.18,0C23.46,0,18.83,5.37,18.83,12s4.63,12,10.35,12,10.35-5.37,10.35-12S34.9,0,29.18,0Zm0,22.81c-3.68,0-6.67-4.78-6.67-10.67s3-10.68,6.67-10.68,6.67,4.78,6.67,10.68S32.87,22.81,29.18,22.81Z" style="fill: #fff"/>
        <path d="M8.61.37H0V1.58H.94A1.64,1.64,0,0,1,2.58,3.22V23.34L6,25.47l.58-.63A1.9,1.9,0,0,1,6.3,24V14.32L8,14.3c1,0,9.1,0,9.1-7.21S8.61.37,8.61.37ZM8.57,13H6.3V3.33c0-1.77,2.12-1.66,2.6-1.66,2.51,0,4.23,2,4.23,5.58C13.13,11.84,10.68,13,8.57,13Z" style="fill: #fff"/>
        <path d="M57.44,18.78l-4.15-7a5.8,5.8,0,0,0,3.85-5.63c0-6.19-8-5.8-8-5.8H40.49v1.2h.93a1.65,1.65,0,0,1,1.65,1.65v18l3.45,2.14.59-.64a1.87,1.87,0,0,1-.33-.83V12.74h1.65c.17,0,.55,0,1.05,0L53.38,19c2.19,3.22,3.31,4.31,5.94,4.31h4.15V22.2A7.16,7.16,0,0,1,57.44,18.78Zm-8.38-7.36H46.79V3.33c0-1.77,2.13-1.66,2.6-1.66,2.51,0,4.23,2,4.23,5.58A4.3,4.3,0,0,1,49.06,11.42Z" style="fill: #fff"/>
        <path d="M71.29,1.64s0,20.07,0,20.23a1.9,1.9,0,0,0,.32.83l-.59.63L67.57,21.2V1.64H66.51c-2.94,0-4.73,1.18-4.73,4.73V7.7H60.36V.37H78.49V7.7H77.07V6.37c0-3.55-1.79-4.73-4.73-4.73Z" style="fill: #fff"/>
        <path d="M98.58,23.33H90.93V22.12h1a.36.36,0,0,0,.34-.58L86.41,13a2.05,2.05,0,0,0-1-.77L84.85,12v8.44a1.64,1.64,0,0,0,1.65,1.64h.94v1.21H78.83V22.12h.93a1.59,1.59,0,0,0,1.16-.47,1.65,1.65,0,0,0,.49-1.17V1.84A1.87,1.87,0,0,0,81.08,1l.59-.64,3.18,2.14v8.21A5.12,5.12,0,0,0,88,8.93l4-5.41c1.52-2.22-1.47-2-1.73-2V.37h7.1V1.51h-.09A4.26,4.26,0,0,0,93.9,3.23l-5.12,6.85L96.1,20.87a2.93,2.93,0,0,0,2.48,1.25Z" style="fill: #fff"/>
        <path d="M116.05,16.37v1c0,3.56-1.78,4.79-4.73,4.79h-3.08a1.75,1.75,0,0,1-1.69-1.75v-1.7h0V12.43h1.78a2.41,2.41,0,0,1,2.42,2.41v1.63h1.42V7.05h-1.42V8.7a2.42,2.42,0,0,1-2.42,2.42h-1.78V5.86h0V3.34a1.75,1.75,0,0,1,1.69-1.76h2.33c3,0,4.73,1.24,4.73,4.8v.31h1.43V.37H100.26V1.58h.94a1.63,1.63,0,0,1,1.64,1.64V20.49a1.63,1.63,0,0,1-1.64,1.63h-.94v1.21h17.22v-7Z" style="fill: #fff"/>
        <path d="M116.05,16.37v1c0,3.56-1.78,4.79-4.73,4.79h-3.08a1.75,1.75,0,0,1-1.69-1.75v-1.7h0V12.43h1.78a2.41,2.41,0,0,1,2.42,2.41v1.63h1.42V7.05h-1.42V8.7a2.42,2.42,0,0,1-2.42,2.42h-1.78V5.86h0V3.34a1.75,1.75,0,0,1,1.69-1.76h2.33c3,0,4.73,1.24,4.73,4.8v.31h1.43V.37H100.26V1.58h.94a1.63,1.63,0,0,1,1.64,1.64V20.49a1.63,1.63,0,0,1-1.64,1.63h-.94v1.21h17.22v-7Z" style="fill: #fff"/>
        <path d="M137.7,1.58H138V.37h-6.9V1.58h1.3a1.53,1.53,0,0,1,1.42,2.23l-4.37,8.85L124.3,2.34c-.19-.38.1-.76,1-.76h1.19V.37h-8.08V1.58h.3a1.54,1.54,0,0,1,1.44.82l6.53,13.2v7.74l3.45,2.13.59-.63a1.87,1.87,0,0,1-.33-.83V14.09l5.76-11.64A1.62,1.62,0,0,1,137.7,1.58Z" style="fill: #fff"/>
        <path d="M77.85,29,72.39,44.05,66.49,29H61.28v1h.8a1.43,1.43,0,0,1,1.42,1.42v2.48h0V46.24a1.43,1.43,0,0,1-1.42,1.43h-.8v1h5.56v-1H66a1.42,1.42,0,0,1-1.41-1.36v-14l6.25,16.36h1.05l5.76-15.84v14l3,1.84.5-.54a1.69,1.69,0,0,1-.27-.72v-16A1.42,1.42,0,0,1,82.3,30h.81V29Z" style="fill: #fff"/>
        <path d="M32.81,39.82V41h1.38a1.28,1.28,0,0,1,1.28,1.28V46.1c0,1.44-2.23,1.8-3.57,1.8-3.29,0-6-4-6-9s2.67-9,6-9c4,0,5.38,2.48,5.8,6v0h1.13V29H37.7v.32a2.17,2.17,0,0,1-.48,1.3h0a8.41,8.41,0,0,0-5.31-1.92c-5.05,0-9.13,3.83-9.13,10.31,0,6.74,4.08,10.32,9.13,10.32a7.73,7.73,0,0,0,3.56-.92l1.65-1.08,0,0a2,2,0,0,1,.58,1.4H39.1V41.64a.69.69,0,0,1,.69-.69h.42V39.82Z" style="fill: #fff"/>
        <path d="M98.74,42.72v.82c0,3.06-1.53,4.13-4.07,4.13H92a1.5,1.5,0,0,1-1.45-1.51V44.7h0V39.33h1.54a2.08,2.08,0,0,1,2.08,2.07v1.4h1.22V34.7H94.19v1.42a2.08,2.08,0,0,1-2.08,2.08H90.57V33.67h0V31.51A1.51,1.51,0,0,1,92,30h2c2.53,0,4.07,1.07,4.07,4.13v.27h1.22V29H85.16v1H86a1.42,1.42,0,0,1,1.42,1.42V46.26A1.42,1.42,0,0,1,86,47.67h-.8v1H100v-6Z" style="fill: #fff"/>
        <path d="M59.41,47.67a1.44,1.44,0,0,1-1.23-.7c-1.7-4.2-6.56-17.21-6.56-17.21L48.22,29l-.3.68a1.69,1.69,0,0,1,.49.59L49.06,32l-5.89,15a1.28,1.28,0,0,1-1.3.75h-.22v1h5.93v-1H46.47a1.32,1.32,0,0,1-1.23-1.91l1.59-4.24h5.83l1.68,4.62a1.13,1.13,0,0,1-1.11,1.53h-.5v1h7v-1ZM47.25,40.39l2.5-6.65,1.76,4.65.74,2Z" style="fill: #fff"/>
        <path d="M105.77,33A2.92,2.92,0,0,1,108.66,30c2,0,4.33,2,4.33,5.1h1.23V29H113v.76a.43.43,0,0,1-.73.32,5.66,5.66,0,0,0-3.83-1.37,5.26,5.26,0,0,0-5.51,5.25c0,5.37,9.22,6.74,9.22,10.83A3.2,3.2,0,0,1,109,48c-2,0-4.83-2-4.83-6.24H103v7h1.23v-.79a.3.3,0,0,1,.5-.22,7.28,7.28,0,0,0,4.36,1.59c3.73,0,6.06-2.24,6.06-5.06C115.13,37.77,105.77,36.68,105.77,33Z" style="fill: #fff"/>
      </g>
    </g>
  </g>
</svg>
