<svg xmlns="http://www.w3.org/2000/svg" viewBox="0 0 219.45 164.22">
  <g id="Layer_2" data-name="Layer 2">
    <g id="Layer_1-2" data-name="Layer 1">
      <path d="M104.84,156.38c-2.81,4.39-8.23,7.39-14.69,7.39-9.69,0-18-6.54-18-17.27,0-9.38,7.14-17.15,18-17.09a21.59,21.59,0,0,1,11.63,3.38c-3.26-1.21-14.43-3.38-19.94,4a16.62,16.62,0,0,0-3,9.74c0,8.66,5.62,14.41,11.34,14.41,4.84,0,9.27-3.51,10.56-10.2a13.47,13.47,0,0,0-2.62-10.64c-1.63-2-5.45-3.9-8.77-1.14a3.86,3.86,0,0,0-1.27,4.8,3.82,3.82,0,0,0,3.38,2c-4.22.85-6-2.43-5.5-5s3.42-6.44,3.42-6.44l9.2.12,7.33,6.86a26.46,26.46,0,0,1,1.05,3.35A16.15,16.15,0,0,1,104.84,156.38Zm23.33,6.42,1.66-1.78-9.31-13.34H117V161l1.65,1.78h-9.58l1.67-1.78V131.63l-1.65-1.78H123c5,0,10.26,4.05,9.13,10.24l1.69-.06s-2.92,3.31-3,3.43l1.11.83h0l-6.36,2.87,2,.71L136.79,161l1.65,1.78Zm-2.24-24.38c0-2.52-1.9-5.76-5.39-5.76H117v12.27h3.55C124.1,144.93,125.93,141.58,125.93,138.42Zm32.61,21.65H146.63l1.29-1.37V131.63l1.69-1.78H140l1.64,1.78V161l-1.65,1.77h21l.71-6.56ZM195.61,146a16.24,16.24,0,0,1-15.55,16.79H163.2l1.67-1.78V142l-2-4.18,2.11.88-3.11-6,3.29.26-2.72-3.13h18.9C189.74,129.85,195.61,136.37,195.61,146Zm-6.59.15c0-6.78-3.18-13.57-9.5-13.57h-8.37V158.7l-1.28,1.37H177C183.4,160.07,189,154.32,189,146.16ZM111.8,76.84a6.61,6.61,0,0,1,6.55,5.81v0h0A20.8,20.8,0,0,1,118.5,85h77.69v-.81L193.05,82s-71,0-71.64,0a9.83,9.83,0,0,0-9.61-8.27h0a9.83,9.83,0,0,0-9.6,8.27c-.68,0-71.64,0-71.64,0L27.4,84.19V85h77.69s0-1.23.15-2.36h0v0a6.6,6.6,0,0,1,6.54-5.81ZM109.73,14c0,.48.52.78.81.93l.14,5.82-.62.6a1,1,0,0,0-.32.68,4.88,4.88,0,0,0,0,.53,4.29,4.29,0,0,0,1,2.53l.07.09,0,1a26.71,26.71,0,0,0,.19,4.36l.12,2.68a3.15,3.15,0,0,0-.73,2.59,1.74,1.74,0,0,0,.76,1V37a17.84,17.84,0,0,0,0,4.44v3.94a3,3,0,0,0-.69,2.25,2.3,2.3,0,0,0,.53,1.54c.06.56.15,1.11.24,1.65l.05.34-.13,7.6a3.86,3.86,0,0,0,.16,3.8c.07,1.42.19,6.65.19,6.71s.11.64.55.64a.69.69,0,0,0,.71-.73c.11-1.86.32-5.52.27-6.61a3.86,3.86,0,0,0,.17-3.81l0-1a12.85,12.85,0,0,0,0-1.73l0-2.05c0-.53,0-1,0-1.54l0-1.65c0-.47.09-.94.11-1.42a2.2,2.2,0,0,0,.64-1.44,3,3,0,0,0-.61-2.51v-.51a5.23,5.23,0,0,0,0-1.19l-.12-6.87a2,2,0,0,0,.72-1.15,3.23,3.23,0,0,0-.78-2.5l0-8A5,5,0,0,0,114.27,22a1,1,0,0,0-.32-.68l-.62-.6V20.7c.06-.89.08-1.8.07-2.77l.07-3c.3-.14.79-.45.83-.93,0-.21.11-.89.25-1.84a1.5,1.5,0,0,0-1-1.66l-.21-3.71a2.21,2.21,0,0,0,.85-2A2,2,0,0,0,113,3.27l1-1.66V1.53c0-.12,0-1.17-.65-1.34A5.61,5.61,0,0,0,111.93,0h-.18a3.34,3.34,0,0,0-.84.11l0,0-.23.06C110,.36,110,1.41,110,1.53v.08l1,1.66a2,2,0,0,0-1.15,1.54,2.21,2.21,0,0,0,.85,2l-.21,3.71a1.48,1.48,0,0,0-1,1.66C109.62,13.13,109.71,13.79,109.73,14ZM85.46,8.49a8.15,8.15,0,0,1,.78.37l.5.26.05.16a2.82,2.82,0,0,0,.26.79,8.73,8.73,0,0,1,.35,1.15.42.42,0,0,0,.06.14l.73,1.26.14.45.1.06.08.07a.54.54,0,0,0-.13.33,1.69,1.69,0,0,0,.56,1,15.1,15.1,0,0,1,.69,2.08,2.93,2.93,0,0,0,.13,1.24,7.57,7.57,0,0,1,.25,1,12.54,12.54,0,0,0,.39,1.44l.28.9a5.19,5.19,0,0,1,.2.8c0,.11.05.54.16,2a.63.63,0,0,0,.19.4l.51.47a3.57,3.57,0,0,1,.33.38,1.9,1.9,0,0,0,.38.34l1.39,4.16c.84,2.74,1.82,5.92,2.83,9,.31.95.62,1.9.92,2.85A101.28,101.28,0,0,0,101,51.21l6.22,18.62a.74.74,0,0,0,.92.47.46.46,0,0,0,.16-.07.75.75,0,0,0,.27-.82l-5.25-17.55a14.91,14.91,0,0,0-.69-2.39l-.12-.27-.1-.33a7.25,7.25,0,0,0-.39-2.33c-.36-1-.77-1.89-1.13-2.68l-.4-1.32c-.54-2.25-1.22-4.6-2.08-7.2-.24-.74-.44-1.31-.64-1.79L95,24.21a.59.59,0,0,0,.4-.75l-.74-2.38a.56.56,0,0,0-.17-.26l-.45-.4-.08-.25v-.31a.79.79,0,0,0,0-.22L92.79,17l.16-.48a.58.58,0,0,0,0-.41l-.13-.43a.58.58,0,0,0-.24-.32L92.17,15l0,0-.31-.82-.47-1.85L90.17,9.06c.33-1.18.27-1.37.24-1.46a3.8,3.8,0,0,1,0-.44,3.53,3.53,0,0,0,0-.55,9.32,9.32,0,0,1,0-1A.61.61,0,0,0,90,5.07l-.56-.16-.57-.21-.47-.13a.62.62,0,0,0-.33,0l-.56.18c-.54,0-.83.18-.84.45a2,2,0,0,1-.29.42l-.61.2-.07,0c-.13.08-.58.36-.64.73a6.26,6.26,0,0,0,0,1.07A.71.71,0,0,0,85.46,8.49ZM33.74,63.34a2.59,2.59,0,0,0,.33.4,7.26,7.26,0,0,0,1.48,1,2.76,2.76,0,0,0,1.06.44,5.22,5.22,0,0,1,.68.24,4.85,4.85,0,0,0,1.1.34l.19,0a1.15,1.15,0,0,0,1.58-.83c0-.16-.62.13-1.27-.51-.13-.14-.83-.75-.85-.89a2.44,2.44,0,0,1,.58-1.06,3.23,3.23,0,0,1,.67.2,4.83,4.83,0,0,1,1.79,1A4.54,4.54,0,0,0,44,64.87a17.56,17.56,0,0,1,9.95,2.66,1.32,1.32,0,0,0,1.31.48l.07,0,.05,0A3.37,3.37,0,0,1,58,67.32l11.4,3.28a20.47,20.47,0,0,0,2.91.84l25.62,7.49a.76.76,0,0,0,.21,0,.72.72,0,0,0,.62-.4.7.7,0,0,0-.42-1c-1.6-.52-7.19-2.44-14.14-4.68a19.37,19.37,0,0,0-2.66-1.06,19,19,0,0,0-2.4-.57c-13.5-4.36-21.07-6.84-21.9-7.18s-.72-.49-.72-.51.29-.37.42-.47.32-.23.31-.43l0-.19-.15-.08a12.89,12.89,0,0,0-3.61-.2c-2.51.07-11.09-1.08-12.67-3.28a7.65,7.65,0,0,0-1.16-1.29,6,6,0,0,1-.9-.92c-1-1.26-2.85-1.72-3.41.24C34.87,58.47,33,58.5,32.6,60c-.16.68.47,1.08.76,1.65C33.49,62.22,33.34,62.86,33.74,63.34Zm142-1.75c-1.57.51-3.2,1-4.81,1.5a5.6,5.6,0,0,1-1.65.11h-.15a1.25,1.25,0,0,1-.47-.16,1.75,1.75,0,0,0-.28-.13l-.24-.09-.33.52.17.17.08.07a1.14,1.14,0,0,1,.11.11l.12.18a.88.88,0,0,1-.2.09,4.42,4.42,0,0,1-.52.14c-.24.07-.49.13-.74.22l-1.37.54-1.25.5c-.47.18-1,.35-1.6.52q-2.35.69-4.73,1.35l-.66.16-.44.11-.67.17c-.41.11-.81.22-1.23.31a20.88,20.88,0,0,0-2.31.69c-.45.15-.92.31-1.42.45a28.27,28.27,0,0,0-3,1.13l-.52.23c-.91.38-1.82.78-2.7,1.17l-1.72.76a22.5,22.5,0,0,1-2.4.82c-.65.2-1.32.4-1.92.63-1.2.45-2.45.83-3.7,1.21-.66.2-1.29.49-2,.67-.46.12-.91.28-1.36.41-.87.25-1.78.52-2.55.76-.26.07-.53.2-.78.28-.44.15-.78.24-1.2.35s-.85.25-1.31.36-.25,0-.66.16-.72.23-.66.59c0,.16.19.32.71.32,0,0,.93-.06,1.51-.17,1.37-.25,2.65-.61,4.11-.91.61-.13,1.45-.62,2-.73l1.66-.35c.48-.11,1.09-.28,1.56-.38.78-.17,1.4-.56,2.09-.73a10.88,10.88,0,0,0,3-.89,13.45,13.45,0,0,1,2.71-.89l.72-.29.34-.14c.37-.15.73-.31,1.1-.48a12.84,12.84,0,0,1,2.32-.88c.38-.08.75-.2,1.1-.31a6.87,6.87,0,0,1,1.86-.43,4.63,4.63,0,0,0,.65-.1l.12,0c.84-.17,1.61-.4,2.36-.63A23.22,23.22,0,0,1,157,70l.95-.19c1-.2,2-.4,3-.63.56-.13,1.12-.31,1.66-.48l.91-.27.54-.14a7.55,7.55,0,0,0,.9-.25c1-.36,1.91-.75,2.79-1.12l.11,0a1.63,1.63,0,0,0,.84-.57c.18-.34.43-.37.88-.41l1.37-.12c1.27-.1,2.58-.21,3.88-.37a18.41,18.41,0,0,0,3-.64c.75-.22,1.51-.47,2.24-.72.9-.3,1.84-.62,2.78-.87,1.22-.33,3.85-.91,5.07-1.18l2.2-.5c.45-.11,1.07-.46,1-.88a1.06,1.06,0,0,0-.36-.68,1.17,1.17,0,0,1-.47-1.09.85.85,0,0,0-.62-.74l-.16,0a4.1,4.1,0,0,0-1.52,0c-.6.17-2.61.59-3.21.71a15.75,15.75,0,0,0-2.8.71c-1.14.44-2.34.82-3.5,1.18l-1.33.41Zm-3.66-24.4-5.31,4.41a1,1,0,0,0-.6.22,1.21,1.21,0,0,0-.32.53c-1.68,1.21-38.54,28.48-43,31.87a.61.61,0,0,0-.16.82h0a.63.63,0,0,0,.89.18c4.9-3.53,41.51-29.53,43.68-31.09a.92.92,0,0,0,1-.56l1.73-.92c.61-.32,4.82-2.95,5.66-3.37,2-.7,3.94-2,2.79-4.35a2.55,2.55,0,0,0-3-1.22,2.45,2.45,0,0,0-1.64,2.57,2.59,2.59,0,0,1-1.18.07.18.18,0,0,0-.15.11,1.29,1.29,0,0,0-.06.21A.84.84,0,0,1,172.12,37.19ZM47.41,39a3.9,3.9,0,0,1,1.79.83c.5.46,1.7.9,2.18,1.27a8.32,8.32,0,0,0,2,1.18,2.36,2.36,0,0,1,1.23.79c.23.35,1,.42,1,.42a5.92,5.92,0,0,0,.69.61,16.48,16.48,0,0,1,2.34,1.47c.53.52,2.19,1.33,3.38,2.3a16.07,16.07,0,0,0,2.54,1.78,16.88,16.88,0,0,1,2.28,1.66c.6.5,1.54,1,2.14,1.58a26.38,26.38,0,0,0,2.84,1.88c1,.62,2.21,1.66,3,2.15S77.32,58.52,78,59s2.78,2.09,3.85,2.75A31.24,31.24,0,0,1,85,64.09c1,.79,3.8,2.6,6.35,4.31s8.08,5.59,8.82,6.07,1.14.15,1.2,0,.16-.43-.4-1-3.49-2.6-4.74-3.5-4.79-3.65-5.71-4.33S83.42,60.51,82,59.48s-3.34-2.37-4.37-3.1S75.23,54.7,74,53.94s-2-1.66-3.64-2.76-2.38-2-3.85-2.78a13.9,13.9,0,0,1-2.81-2.13c-.75-.66-2-1.08-2.65-1.83a5.47,5.47,0,0,0-1.9-1.19c-.13-.36-1.37-1-1.7-1.27s-2.95-2.93-4.12-3.84a22.58,22.58,0,0,0-2.6-1.61c-.46-.3-.74-1-2-2.23-1.09-1.11-2.83-.43-3.52.43A2.48,2.48,0,0,0,45,37.46C45.36,38.56,46.69,38.88,47.41,39ZM116,70.51l.14.09a.66.66,0,0,0,.51,0,1.42,1.42,0,0,0,.68-1c.23-.74.54-1.79.87-2.93.26-.9.54-1.84.8-2.72.71-2.4,2.83-8.11,4-11.18l.73-2c0-.17.08-.29.11-.43a12.54,12.54,0,0,1,.45-1.5l.29-.84c.7-2,2.14-6.1,2.84-8.67a5.72,5.72,0,0,1,.26-.76,4.76,4.76,0,0,0,.29-.85,5.64,5.64,0,0,1,.21-.7,7,7,0,0,0,.29-1.07,2.87,2.87,0,0,1,.18-.49c.14-.32.35-.81.65-1.67s1.22-3.6,1.79-5.31c.31-.91.53-1.59.56-1.67l.29-.66c.23-.54.59-1.35,1-2.43.79-1.89,2.26-5.65,3.3-8.39.37-1,.73-1.85,1.06-2.67a37.76,37.76,0,0,0,1.48-4.1,2.93,2.93,0,0,0-1.66-3.33c-.68-.18-.84.17-1,.46l0,.06a29.4,29.4,0,0,0-1.41,4.85c-.25,1-.46,1.91-.63,2.41-1.44,4-2,5.83-2.67,7.93-.25.81-.51,1.65-.84,2.66-.51,1.59-1.52,4.59-2.58,7.77-1.37,4.08-2.78,8.3-3.28,9.91-.55,1.78-3,9.2-4.78,14.62-1.1,3.33-2,6-2.09,6.35-.32,1-1.66,5.53-2,6.65C115.7,69.7,115.59,70.21,116,70.51ZM161.49,18.2l-3.83-2.74a.56.56,0,0,0-.71,0,.85.85,0,0,0-.28.78l.09.5A1.66,1.66,0,0,1,156.5,18l-9,13.45a.36.36,0,0,0,0,.09l-.23.8a.34.34,0,0,1-.17.2l-1,.44a.83.83,0,0,0-.48.7.79.79,0,0,0,.11.45h0a1,1,0,0,0,.13.18c-7.94,10.85-26.17,36.3-26.47,36.69s-.72,1.08-.2,1.39,1.16-.58,1.16-.58c6.48-8.19,23.4-31,27.29-36.22a.83.83,0,0,0,.21.06h0a.9.9,0,0,0,.46,0,.84.84,0,0,0,.52-.69l.11-1a.34.34,0,0,1,.13-.23l.68-.47a.27.27,0,0,0,.08-.07l9.71-13a1.51,1.51,0,0,1,1-.62l.5-.08a.9.9,0,0,0,.66-.52h0A.58.58,0,0,0,161.49,18.2ZM67.44,129.85,69,131.63l-6.75,19.61-6.7-19.65,1.8-1.74H47.42l1.6,1.78-5.37,19-7.15-19L38,129.85H28.18l1.75,1.78L42.25,164.2,44,162.32,51,137l9.29,27.19,1.66-1.78c2.28-6.59,10.58-30.8,10.59-30.81l2-1.78ZM50.15,94H41.91l1.61,1.71v23.39l-1.63,1.75h8.26l-1.62-1.76V95.75Zm111,0h-8.25l1.61,1.71v23.39l-1.63,1.75h8.26l-1.62-1.76V95.75ZM72.88,97.61V94H54.2l-.94,6.38,3.53-3.7H67.68L53.44,117.14v3.73H72.88l.67-5.9s-3,3.21-3.06,3.22H58.85l8.8-12.85,3.78-2.52-1.36-.77L75,98.89Zm71.88,22.24s-1,7.69-10.52,7.69a17.71,17.71,0,0,1-14.08-6.35,34.87,34.87,0,0,1-6.17-12h-3.52v9.92l1.62,1.75h-8.26l1.64-1.76V95.75L103.86,94h12a8,8,0,0,1,3.44.79,7,7,0,0,1,4.29,6.31c0,5.45-5.36,7.45-5.36,7.45h0l2,.69a39.36,39.36,0,0,0,4.64,10A12.1,12.1,0,0,0,135.44,125c4,0,6-1.87,6.48-2.87L140.81,121l-3.21,1.84,1.51-3Zm-30.59-13.33c2.46,0,4.43-2.69,4.43-5.22a4.36,4.36,0,0,0-4.4-4.58h-3.73v9.8ZM187.7,95.75,189.33,94h-6.49l1.63,1.73c0,1.21,0,18.06,0,18.06L170.36,94H163.9l1.61,1.73s0,23.36,0,23.36l-1.62,1.76h6.42l-1.62-1.76V100.49l14.47,20.38h6.17l-1.63-1.75Zm-85.32,25.12H93.83l1.63-1.75-1.6-4.42,1.2-1.16H82.14l-2.45,5.58,1.62,1.75H74.47l1.62-1.75,2.75-6.2-2.16-2.06h3.07l6.7-15.11L84.87,94h9l-1.6,1.73,8.51,23.37Zm-9.94-10-4.13-11.3-5,11.3Zm57.74-5.51c0,6.46-4,12-10,12H127.74l1.41-1.75V95.72L127.52,94h12.09C147.73,94,150.18,99.88,150.18,105.35Zm-5.41,0c0-3.16-1.06-8.6-6.55-8.6h-4.1v16.59l-1.25,1.34h5C142.88,114.64,144.77,109.57,144.77,105.3ZM33.59,94l1.62,1.74L30,111.17,24,95.75,25.69,94H16.83l1.64,1.73-4.95,16.61-2.9-6.73,2.14.89L8.81,99l2.44,1L8.43,94H0l5,8.56-2.68-1.13,6.22,9.62L5.89,110l7,13,1.34-1.87,6.4-20.7L29,122.59l1.34-1.87,8.31-25L40.34,94Zm185.86,11.45H210c-2.58,0-5.17.18-6.11,2.35-.09.21-.24.76-.24.76l2.76,2.65,1.25-3h5.41l-1.31,1.39v8.3a14.56,14.56,0,0,1-5,.88c-5,0-10.33-4.3-10.33-11.25,0-5.55,3.62-11.44,10.33-11.44a11,11,0,0,1,7,2.38,17.6,17.6,0,0,1,2.42,3l2.14-7.07-3.09,1.13a22.18,22.18,0,0,0-8.42-2.12c-9.26,0-15.73,5.82-15.73,14.16a14.56,14.56,0,0,0,3.94,10.13c3.14,3.37,7.65,3.83,11.65,3.83a24.17,24.17,0,0,0,10.11-2.36V111.2l2.39-2.79L217,108Zm-114.66-35c-.15-.19-10.7-14.87-17.41-24.33a5.46,5.46,0,0,0-.49-.89A15.23,15.23,0,0,0,85,42.78L83.64,41a.3.3,0,0,0,0-.1,4.89,4.89,0,0,0-.72-1l-.09-.11a3.29,3.29,0,0,0-.61-1.17,6.11,6.11,0,0,0-.58-.86h0l-2-2.84.11-.47v0a2.4,2.4,0,0,0-.83-1.18h0l-.43,0-.53-.71.11-.37v0a.63.63,0,0,0-.1-.29,4.11,4.11,0,0,0-.34-.51.63.63,0,0,0-.41-.26l-.32,0-1.08-1.55,0-.6h0a5.92,5.92,0,0,0-.66-1l-.65-.22-.84-1.18h0c.1-.21.24-.52.13-.71s-.41-.72-.61-1a1,1,0,0,0-.89-.43h-.2l-3.3-4.62-.12-.43a.8.8,0,0,0-.31-.47l-.7-.53L66,15.84a.63.63,0,0,0-.41-.26.66.66,0,0,0-.47.12l-1.54,1.13a.63.63,0,0,0-.13.87l1,1.39.14.71a.7.7,0,0,0,.42.51l.68.3,2.93,4V25a.7.7,0,0,0,0,.32,3.5,3.5,0,0,0,.46.73.61.61,0,0,0,.17.14l.73.38,1.4,1.89.33.58.06.08.5.53L73.19,31l0,.33a.79.79,0,0,0,.14.5c.14.19.34.44.49.62a.78.78,0,0,0,.45.25l.24.05.63.8-.09.32v0a2.69,2.69,0,0,0,.51.75l0,0h.35l.94,1.27-.06.65v0a2.49,2.49,0,0,0,.76.88l.49.05L79,38.74A1.57,1.57,0,0,0,79,39a1.8,1.8,0,0,0,.37.69,2.81,2.81,0,0,0,.76.64l.77,1a1.48,1.48,0,0,0,.57.9.39.39,0,0,0,.14,0L85,46.85c0,.08,1.1,1.48,2.67,3.55a4.7,4.7,0,0,0,1.42,1.89C91.5,55.44,103.25,71,103.61,71.45a1,1,0,0,0,.73.43.59.59,0,0,0,.45-.19A.91.91,0,0,0,104.79,70.45Z" style="fill: #fff"/>
    </g>
  </g>
</svg>
