<svg xmlns="http://www.w3.org/2000/svg" viewBox="0 0 167.94 43.89">
  <g id="Layer_2" data-name="Layer 2">
    <g id="Layer_1-2" data-name="Layer 1">
      <g>
        <path d="M30.46,32.66l1.41-6.95H14.33L29.72.66H2.48l-1.43,7H16.21L0,32.66Zm16,10.9L63.53.66H55.26L47.48,21.53,40.19.66H31.27L43,31.11,37.41,43.56ZM94,32.66V10.32C94,3.6,89.58,0,84.26,0A12.53,12.53,0,0,0,73.94,5.16L73.45.66H65.67v32h8.27V12c2.46-3.12,5.16-4.34,7.61-4.34s4.18,1.22,4.18,5.24v19.8Zm7.1,9.86a37.33,37.33,0,0,0,11.12,1.37c9.58,0,14.08-5.16,14.08-15.8V.66h-7.69l-.25,2.21A12.33,12.33,0,0,0,110.5,0c-8.76,0-13.43,6.31-13.43,16.46,0,9.17,4.59,15.56,12.69,15.56A10.83,10.83,0,0,0,118,28.09V30c0,4-2.21,7-7,7a22,22,0,0,1-8.43-1.47ZM112,7A9.85,9.85,0,0,1,118,9.25V21.53a9.38,9.38,0,0,1-7,3.2c-2.78,0-5.24-2-5.24-8.27C105.75,10.48,107.39,7,112,7Zm46.67,25.62V.66h-7.7l-.24,2.21A12.33,12.33,0,0,0,142.83,0c-8.75,0-13.42,6.88-13.42,17,0,9.17,4.58,16.3,12.69,16.3a10.85,10.85,0,0,0,8.27-3.93l.49,3.26ZM144.31,7a9.87,9.87,0,0,1,6.06,2.21v13.6a9.41,9.41,0,0,1-7,3.19c-2.79,0-5.24-2.71-5.24-9C138.09,11.05,139.72,7,144.31,7Z" style="fill: #fff"/>
        <path d="M165.31,27.54a2.62,2.62,0,1,1-2.64,2.61A2.61,2.61,0,0,1,165.31,27.54Zm0,4.86a2.24,2.24,0,1,0-2.16-2.25A2.16,2.16,0,0,0,165.31,32.4Zm-1-3.77h1.18c.73,0,1.07.29,1.07.87a.79.79,0,0,1-.8.84l.87,1.35h-.51l-.83-1.32h-.51v1.32h-.47Zm.47,1.36h.5c.42,0,.81,0,.81-.51s-.35-.47-.68-.47h-.63Z" style="fill: #fff"/>
      </g>
    </g>
  </g>
</svg>
