<svg xmlns="http://www.w3.org/2000/svg" viewBox="0 0 52 52"><defs><style>.cls-1{fill:#c4a237;}</style></defs><title>twitter</title><g id="Layer_2" data-name="Layer 2"><g id="Logo_FIXED" data-name="Logo — FIXED"><path class="cls-1" d="M45.5,0H6.5A6.5,6.5,0,0,0,0,6.5v39A6.5,6.5,0,0,0,6.5,52h39A6.5,6.5,0,0,0,52,45.5V6.5A6.5,6.5,0,0,0,45.5,0ZM38.92,19.37c0,.29,0,.58,0,.86,0,8.82-6.7,19-19,19a18.87,18.87,0,0,1-10.22-3,13.86,13.86,0,0,0,1.59.09,13.37,13.37,0,0,0,8.28-2.85,6.67,6.67,0,0,1-6.23-4.63,6.56,6.56,0,0,0,1.26.12,6.37,6.37,0,0,0,1.75-.24,6.66,6.66,0,0,1-5.35-6.53.28.28,0,0,1,0-.09,6.65,6.65,0,0,0,3,.84A6.69,6.69,0,0,1,12,14a18.92,18.92,0,0,0,13.75,7,6.39,6.39,0,0,1-.18-1.52A6.67,6.67,0,0,1,37.12,14.9a13.22,13.22,0,0,0,4.23-1.62A6.69,6.69,0,0,1,38.42,17a13.24,13.24,0,0,0,3.83-1A13.32,13.32,0,0,1,38.92,19.37Z"/></g></g></svg>